<?xml version="1.0" encoding="UTF-8"?><svg id="Layer_1" xmlns="http://www.w3.org/2000/svg" viewBox="0 0 273.78 98.4"><defs><style>.cls-1{fill:#fff;}</style></defs><g><path class="cls-1" d="m113.3,16.67c-.32,0-.63.03-.94.12-4.72,1.14-9.41,2.47-13.98,4.12-3.41,1.22-6.75,2.73-9.76,4.75-1.23.83-2.42,1.71-3.53,2.67-.26.23-.55.48-.63.84.36,2.2,2.45,3.39,4.27,4.31,2.98,1.37,6.33,2.16,9.62,1.79-.98-.83-2.34-.96-3.37-1.7-.42-.32-.43-.88-.54-1.34-1.01.2-1.97.59-2.97.82.92-.57,1.92-.98,2.88-1.48,5.12-2.2,10.65-3.14,16.14-3.89,3.82-.42,7.73-.55,11.43-1.7-.3-.83-.45-2.05-1.52-2.18-2.31-1.2-3.41-3.69-4.74-5.78-.49-.85-1.41-1.32-2.36-1.34Z"/><path class="cls-1" d="m160.66,16.67c-.73-.01-1.46.2-1.99.74-.74.77-1.17,1.77-1.74,2.66-.81,1.41-1.86,2.72-3.25,3.6-.36.23-.9.19-1.11.62-.32.52-.52,1.11-.63,1.71,3.71,1.1,7.59,1.22,11.4,1.7,6.05.76,12.16,1.87,17.67,4.59.47.25.94.51,1.41.77-1-.26-1.99-.59-2.98-.87-.16.5-.18,1.13-.67,1.44-1.02.69-2.35.81-3.27,1.65,1.57.21,3.16.06,4.71-.23,3.01-.59,6.09-1.71,8.29-3.93h.03c.48-.64.75-1.41.85-2.22-3.53-3.27-7.79-5.66-12.26-7.37-5.03-1.94-10.23-3.43-15.47-4.71-.31-.09-.65-.14-.98-.15h0Z"/><path class="cls-1" d="m136.92,0c-.21,0-.42.12-.46.42-.87,2.87-1.64,5.83-3.28,8.37-.59.94-1.44,1.68-2.41,2.22-2.33,1.33-4.92,2.06-7.46,2.86-.4.11-.73.37-1.01.65.29.24.6.49.98.61,2.73.87,5.56,1.63,8,3.19,1.45.89,2.3,2.43,3,3.93h.02c.91,2.09,1.52,4.27,2.19,6.44.19.63.94.26.95-.25.56-2.08,1.26-4.12,2.03-6.12l-.05-.14.17-.05c.46-.79.82-1.63,1.4-2.35.71-.97,1.75-1.61,2.79-2.17.38-.18.76-.36,1.15-.54,1.82-.75,3.7-1.34,5.58-1.91.37-.16.99-.28.88-.82-.34-.29-.77-.44-1.18-.57-2.47-.75-4.98-1.5-7.23-2.8-.96-.55-1.8-1.32-2.38-2.26-1.59-2.53-2.37-5.44-3.22-8.27-.04-.27-.25-.42-.47-.43h0Z"/></g><g><path class="cls-1" d="m26.17,18.83c-1.74-.01-3.48.15-5.19.49-5.93,1.19-11.27,4.72-14.96,9.48-2.04,2.64-3.61,5.64-4.62,8.82C.36,40.92-.12,44.41.02,47.87c.08,1.84.3,3.67.72,5.47.31,1.35.71,2.67,1.2,3.96h.03c.7,1.93,1.66,3.75,2.77,5.46.16.16.24.54.51.53l-.12.03c1.51,2.19,3.35,4.15,5.42,5.83h.07c1.93,1.61,4.16,2.85,6.49,3.76,3.31,1.31,6.9,1.81,10.44,1.63,5.76-.21,11.66-1.35,16.64-4.37,1.52-.79,2.9-1.91,4.09-3.14,0-1.23,0-2.45.02-3.68,0-1.92.03-3.85-.02-5.77.07-1.26-.12-2.57.38-3.76l-.04.06c.52-.96,1.32-1.78,2.31-2.25.9-.49,2.03-.5,2.83-1.17,0-.13-.02-.4-.03-.54-.66-.09-1.33-.06-2-.06-8.14,0-16.28,0-24.42,0-.48-.12-1.09.33-.72.83.58.56,1.44.64,2.18.87,2.2.46,4.34,1.48,5.73,3.29.44.84.88,1.71.88,2.68.03,2.87-.02,5.73.02,8.59-.11,1.47-.11,3-.74,4.36-1.15,1.26-3.04.73-4.54.8-2.59-.39-5.04-1.55-6.99-3.3-1.82-1.61-3.28-3.59-4.42-5.73-1.02-1.94-1.79-4-2.36-6.11-.3-1.23-.54-2.47-.75-3.72-.26-2.23-.39-4.47-.29-6.71.16-2.81.62-5.61,1.41-8.31h.03c.88-2.96,2.25-5.76,4.09-8.24,1.19-1.45,2.5-2.82,4.08-3.85,2.6-1.77,5.93-2.51,9.01-1.76,3.32.76,6.08,3.04,8.13,5.69,1.33,1.79,2.4,3.75,3.23,5.82.37.96.71,1.93.98,2.93.19.61.27,1.3.76,1.76.82-1.53.65-3.34.84-5.01.09-1.68.13-3.36.14-5.04-.06-1.69.03-3.44-.52-5.07-3.04.08-5.92-1.03-8.55-2.46-3.88-2.17-8.32-3.32-12.77-3.35h0Z"/><path class="cls-1" d="m51.7,36.36c-.14,0-.28,0-.42,0,1.08,1.07,2.54,1.8,3.28,3.2,1.04,1.98,1.05,4.3,1.01,6.48.03,1.85,0,3.7,0,5.55,0,1.99,0,3.98,0,5.97,1.03-1.01,2.14-1.95,3.31-2.79,1.62-1.17,3.36-2.17,5.16-3.03,0-1.82,0-3.64,0-5.46.02-1.04-.05-2.08.03-3.12.12-.98,1.09-1.7,2.06-1.62,2.03,0,4.06-.02,6.09.02,1.69.05,3.28.81,4.55,1.9,1.55,1.45,2.62,3.34,3.29,5.34.07-.08.2-.24.26-.32.24-1.7-.05-3.43-.31-5.11-.34-1.6-.8-3.18-1.35-4.73-5.9,0-11.82.07-17.69-.59-2.7-.37-5.37-.95-8.03-1.53-.41-.1-.83-.14-1.25-.15h0Z"/><path class="cls-1" d="m74.53,50.6c-.6,0-1.21.07-1.79.12-5.88.76-11.53,3.23-16.14,6.96-1.55,1.35-2.95,2.87-4.15,4.53-1,1.43-1.91,2.94-2.61,4.54,1.7-1.13,3.47-2.13,5.29-3.06.15-.07.3-.13.45-.2,0,.3,0,.59,0,.89.12,1.5-.2,2.97-.7,4.37l.07.16-.2.06c-1.05,2.09-2.92,3.54-4.62,5.07,1.3.04,2.55-.38,3.81-.62,3.38-.72,6.83-.96,10.28-.96,5.31,0,10.63,0,15.94,0,.67-1.72,1.17-3.51,1.56-5.32.24-1.4.39-2.83.38-4.25-.03-.36.01-.89-.42-1.03-.66,1.91-1.72,3.69-3.15,5.12-1.49,1.44-3.48,2.37-5.56,2.41-2.36.01-4.71.01-7.07,0-.58.03-1.05-.35-1.48-.69-.19-.45-.4-.91-.37-1.41,0-1.27,0-2.54,0-3.81.01-1.08,0-2.16,0-3.24.38-.1.75-.19,1.13-.29.82-.18,1.65-.35,2.47-.51,4.26-.75,8.59-1.09,12.91-1.11.25-.02.49-.06.74-.12-.26-.73-.73-1.38-1.38-1.8-.78-.46-1.71-.65-2.46-1.15-1.19-1.02-.99-2.77-.71-4.14-.67-.43-1.43-.55-2.2-.54h0Z"/><path class="cls-1" d="m112.68,38.62c-2.5,0-5,.01-7.5.03-.38.74.67.92,1.12,1.19,1.8.78,2.26,2.96,2.09,4.73,0,1.11-.01,2.23,0,3.34,0,3.01-.02,6.01,0,9.02,0,.89,0,1.79,0,2.68-.37-.47-.75-.95-1.12-1.42-1.45-1.89-2.95-3.76-4.4-5.65-.91-1.15-1.81-2.31-2.71-3.46-.83-1.07-1.67-2.13-2.5-3.2-1.89-2.42-3.78-4.83-5.67-7.26-3.02.01-6.05-.04-9.07.02v.56c.73.59,1.8.76,2.35,1.61,1.19,1.48.79,3.45.87,5.19,0,1.55-.02,3.1,0,4.66-.01,1.39,0,2.79,0,4.18,0,1.36,0,2.72,0,4.08,0,1.98.01,3.97-.01,5.95-.03,1.46.17,2.96-.26,4.39-.29.55-.58,1.13-1.08,1.52-.51.44-1.19.61-1.75.98-.28.14-.15.48-.14.72,5-.02,10,.02,15-.02.17-.79-.74-.94-1.25-1.24-.97-.41-1.55-1.35-1.89-2.3-.31-1.65-.09-3.34-.17-5.01.02-1.69,0-3.37,0-5.06.01-1.08,0-2.16,0-3.25,0-.91,0-1.83,0-2.74,0-1.24,0-2.48,0-3.72l-.03-.5s.09-.05.12-.06c.49.73,1.06,1.4,1.59,2.1.62.78,1.23,1.58,1.85,2.36,1.14,1.46,2.27,2.93,3.42,4.38.96,1.24,1.92,2.48,2.9,3.72,1.47,1.85,2.88,3.75,4.38,5.58,1.22,1.64,2.51,3.23,3.75,4.85.7.9,1.48,1.74,2.31,2.51,1.3,1.1,2.9,1.92,4.61,2.04-.23-.82-.83-1.47-1.19-2.23l-.17-.07.08-.1c-.3-1.06-.75-2.09-.96-3.18-.17-.96-.29-1.92-.36-2.89-.11-1.93-.06-3.87-.07-5.81,0-2.15,0-4.29,0-6.44.03-2.01.01-10.16,0-11.46-.06-1.56.5-3.34,2-4.06.53-.31,1.43-.44,1.33-1.25-2.5-.02-5-.03-7.5-.03h0Z"/><path class="cls-1" d="m135.67,31.36c-.7,0-1.39.06-2.09.17-3.42.48-6.69,2.29-8.69,5.13-.73,1.08-1.28,2.27-1.61,3.52v.03c-.59,2.42-.27,4.99.55,7.33h.03c.57,1.59,1.5,3.03,2.65,4.26h.04c1.46,1.44,3.2,2.57,4.89,3.69,3.47,2.51,7.13,4.76,10.52,7.38.95.87,1.61,2.03,1.81,3.31.03,1.11-.1,2.22-.51,3.26-.57,1.22-1.56,2.24-2.79,2.8-1.42.71-3.05.65-4.58.47-.73-.12-1.45-.28-2.16-.47-1.4-.44-2.72-1.1-3.93-1.91-.42-.33-.84-.65-1.24-.99l-.58-.51c-.37-.38-.74-.77-1.11-1.16-.76-.88-1.47-1.82-2.1-2.8-1.02-1.48-1.66-3.21-2.76-4.64-.42,1.5-.41,3.08-.43,4.62,0,.47,0,.95.06,1.42.08,1.39.26,2.77.57,4.13.43,1.72,1.08,3.44,2.32,4.74,1.81-1.1,4.11-.95,6.04-.26,3.17,1.02,6.56,1.25,9.86.91,1.53-.15,3.04-.53,4.48-1.07,1.96-.82,3.7-2.15,4.92-3.9,1.09-1.63,1.77-3.52,2.01-5.47l.03.02c.14-1.07.18-2.14.18-3.22-.07-2.29-.64-4.57-1.85-6.53-.75-1.18-1.69-2.21-2.68-3.19-2.45-2.05-5.17-3.76-7.79-5.59-2.38-1.64-4.81-3.2-7.13-4.92-1.39-1.12-2.38-2.86-2.06-4.7.24-1.01.74-2.01,1.63-2.59,1.55-1.06,3.53-1.08,5.33-.9,2.29.24,4.46,1.4,5.92,3.19h.02c.95,1.15,1.49,2.56,2.35,3.75,1.69,1.22,3.47,2.47,5.49,3.05.03-1.02-.38-1.97-.72-2.9-.54-1.38-1.09-2.76-1.7-4.11-.76-1.58-1.65-3.09-2.61-4.56-1.38.66-2.92.37-4.34.05-2.04-.45-4.12-.85-6.21-.84h0Z"/><path class="cls-1" d="m168.34,38.62c-5.01.05-10.01-.05-15.02.05-.05.92,1.05.97,1.62,1.39,1.49.92,1.83,2.82,1.7,4.44.02,1.34-.02,2.68.02,4.03l.04.15c-.07.53-.07,1.07-.05,1.61,0,2.06-.02,4.13,0,6.19,0,.84-.05,1.68.08,2.51l-.02-.16c.02.11.07.32.1.43-.03.04-.1.14-.13.18-.08,1.68-.02,3.37-.04,5.05,0,1.23,0,2.45,0,3.69-.05,1.25-.47,2.42-.91,3.58l.05.16-.15.02c-.9,1.62-2.22,2.92-3.55,4.18,4.14.1,7.68-2.45,11.65-3.22,1.53-.25,3.07-.45,4.63-.43.27-.77-.67-.97-1.17-1.24-1.32-.57-2-2.03-2.08-3.4,0-1.21.02-2.43-.01-3.64.02-1.19.03-2.38-.01-3.56.02-1.03.86-2.01,1.94-1.97,3.43,0,6.87-.04,10.3.02.27.15.55.29.86.37.48.54.61,1.24.76,1.93l-.15.16c.03.1.09.31.12.42-.16.56-.07,1.15-.08,1.73,0,1.48-.03,2.97,0,4.45-.07,1.39-.72,2.88-2.04,3.48-.52.3-1.43.44-1.28,1.24,5,.02,10,.04,15,0,.32-.74-.63-.91-1.09-1.18-1.32-.54-2.02-1.96-2.15-3.31,0-1.17.02-2.35-.02-3.52.05-1.79.03-3.58,0-5.37.06-2.03.03-4.06,0-6.09.08-2.75-.01-5.5.02-8.25,0-1.11-.06-2.29.49-3.31.38-.82,1.12-1.41,1.95-1.73.39-.19,1.13-.46.77-1.03-5-.04-10-.04-15,0-.11.81.81.93,1.33,1.25,1.27.59,1.86,2.01,2,3.34-.04,2.55,0,5.1-.03,7.65.03.63-.35,1.15-.76,1.6-.4.17-.81.36-1.26.34-3.19,0-6.37,0-9.55,0-.83.09-1.56-.41-2.01-1.06-.27-1.43-.09-2.89-.14-4.33,0-.5,0-1,0-1.5,0-.41,0-.81.01-1.21-.15-1.75.18-3.9,1.91-4.78.51-.33,1.63-.47,1.31-1.32h0Z"/><path class="cls-1" d="m196.61,50.61c-.42,0-.84.02-1.26.08-.43.04-.8.25-1.17.46.21,1.17.42,2.49-.22,3.57-.25.47-.77.68-1.11,1.07-1.15.11-2.42.81-2.99,1.9-.17.21-.3.71.13.66,3.47.03,6.93.22,10.38.67,0-.47,0-.93,0-1.39,0-.8,0-1.6,0-2.4,0-1.39,0-2.77,0-4.16-1.24-.22-2.5-.45-3.76-.46Z"/><path class="cls-1" d="m211.25,55.47c0,2.12-.01,4.25-.01,6.37l.07-.13c3.41,1.36,6.69,3.03,9.76,5.05-1.06-2.44-2.56-4.66-4.31-6.66-1.59-1.81-3.48-3.35-5.52-4.63h0Z"/><path class="cls-1" d="m200.88,38.61c-1.68,0-3.35.02-5.02.09,0,.12.02.36.03.47,1.31.7,2.97.69,4.11,1.76,1.1.84,1.45,2.26,1.29,3.58.02,3.66,0,7.32,0,10.98.01,2.08-.03,4.17.01,6.25-.04.85-.01,1.69-.01,2.54-.01,1.31.02,2.63-.04,3.94-.49,1.81-2.28,2.84-4.01,3.18-.55.2-1.52.21-1.47,1,.61.07,1.22.08,1.83.04.16,0,.49,0,.66,0,5.54.09,11.08,0,16.62.04.36-.02,1.09.11.94-.49-.68-.54-1.6-.56-2.38-.85-1.15-.34-2.15-1.1-2.77-2.13l-.19-.04.06-.19c-.27-1.05-.19-2.14-.19-3.21,0-1.78,0-3.57,0-5.35,0-2.33,0-4.65,0-6.98.02-2.61,0-5.22,0-7.83.06-1.17-.21-2.45.46-3.49.75-1.28,2.19-1.92,3.59-2.23.55-.21,1.47-.2,1.5-.98-2.2-.19-4.42-.03-6.62-.09-2.79.03-5.59-.02-8.38-.01h0Z"/><path class="cls-1" d="m273.75,21.88c-2.1.23-4.14.89-6.22,1.28-5.66,1.27-11.33,2.5-16.98,3.78-.33,0-.9.45-.45.73,1.32.49,2.87.62,3.89,1.73,1.37,1.26,1.53,3.21,1.45,4.95-.04,1.64-.02,3.28,0,4.91-.04,2.6-.03,5.21,0,7.81-.06,1.6,0,3.2-.02,4.8-2.48-2.07-4.94-4.16-7.43-6.22-2.55-2.16-5.12-4.3-7.68-6.46-3.1-2.62-6.23-5.21-9.33-7.84-3.32.48-6.64.99-9.96,1.46-.52.17-1.6-.07-1.51.76.84.75,2.13.54,3.1,1.09,1.7.74,2.58,2.64,2.41,4.43-.02,2.51-.02,5.02,0,7.54,0,2.13-.02,4.26,0,6.38-.01,1.96-.02,3.91,0,5.87,0,1.72,0,3.44,0,5.16.07,1.37-.01,2.77-.64,4.02-.68,1.26-1.74,2.32-3.05,2.92-.57.32-1.27.48-1.73.97-.23.59.56.52.92.53,1.49-.03,2.98.05,4.46-.04h.14c3.91.09,7.83.01,11.75.04,2.13-.05,4.28.09,6.41-.07.4-.46-.26-.76-.59-.92-1.27-.55-2.52-1.22-3.39-2.33-1.03-1.3-1.5-2.97-1.36-4.61,0-1.33,0-2.66,0-3.98,0-2.35,0-4.7,0-7.05,0-1.98,0-3.95,0-5.93,0-1.28,0-2.57,0-3.85,1.06.88,2.11,1.78,3.18,2.65,1.68,1.42,3.35,2.84,5.04,4.24,3.09,2.62,6.2,5.2,9.28,7.82,0,.17,0,.51,0,.67.08,1.9.27,3.82.85,5.63.31,1.15.74,2.27,1.29,3.33.63,1.24,1.39,2.42,2.32,3.47,1.88,2.22,4.3,3.97,6.99,5.08.45.18,1.18.37,1.39-.25.2-2.44.06-4.89.07-7.33.06-2.72,0-5.44.02-8.17-.02-2.95.06-5.91-.05-8.85.11-3.44.04-6.9.03-10.34.05-3.93,0-7.85.02-11.78.1-2.81,1.98-5.27,4.3-6.71.42-.38,1.29-.63,1.1-1.34h0Z"/></g><g><path class="cls-1" d="m64.43,83.44c-3.35.02-6.7-.02-10.04.02.04.62.79.57,1.22.79,1.03.29,1.93,1.22,1.9,2.33,0,2.86,0,5.71,0,8.57.04,1.12-.86,2.08-1.9,2.37-.44.21-1.15.18-1.25.78,3.36.08,6.71,0,10.07.04.41-.06.96.14,1.23-.29-.51-.28-1.07-.45-1.62-.65-.91-.35-1.63-1.26-1.59-2.26-.01-2.69,0-5.38-.01-8.07-.04-.74.1-1.53.65-2.07.67-.77,1.76-.78,2.58-1.32-.31-.37-.83-.21-1.24-.25h0Z"/><path class="cls-1" d="m85.27,83.41c-2.55.1-5.11-.02-7.67.06l.07.39c1.05.4,2.23,1.01,2.34,2.27.08,3,.02,6.01.03,9.02.04,1.09-.81,2.03-1.82,2.34-.48.21-1.13.22-1.38.76,1.71.18,3.44.03,5.16.09.49-.05,1.09.14,1.49-.24-.55-.44-1.29-.7-1.63-1.36-.37-.63-.38-1.37-.38-2.07.02-2.65-.01-5.29.01-7.94.56,1.06.9,2.23,1.53,3.24l-.07.22c.08.1.22.3.3.4,1.1,2.62,2.32,5.2,3.44,7.81.71-.35,1.11-1.07,1.42-1.76,1.43-3.21,2.86-6.42,4.3-9.62,0,2.63,0,5.26,0,7.89.02.83-.14,1.74-.76,2.34-.38.37-1.09.45-1.16,1.07,2.94.05,5.89,0,8.83.03.41-.07.98.16,1.24-.29-.75-.44-1.67-.5-2.34-1.08-.53-.44-.88-1.11-.86-1.81,0-2.86,0-5.72,0-8.57-.02-.98.56-1.96,1.49-2.32.39-.21.97-.27,1.05-.8-2.49-.05-4.98,0-7.46-.03-1.22,2.66-2.39,5.35-3.59,8.01-1.22-2.67-2.38-5.38-3.61-8.04h0Z"/><path class="cls-1" d="m113.43,83.44c-.34,0-.69.01-.98.2.4.32.87.5,1.33.72.84.39,1.32,1.33,1.3,2.24,0,2.85,0,5.7,0,8.55.05,1.11-.84,2.07-1.86,2.36-.45.22-1.2.17-1.27.81,3.74.02,7.47.02,11.21,0-.04-.57-.66-.57-1.06-.74-.99-.25-1.92-1.02-2.05-2.08-.07-1,0-2.01-.03-3.01,1.65,0,3.37.08,4.93-.57,1.37-.53,2.71-1.47,3.23-2.9.45-1.21.02-2.61-.87-3.5-1.41-1.44-3.49-2.04-5.46-2.07-2.69-.01-5.38,0-8.07,0-.11,0-.23,0-.34,0h0Zm6.6,1.04c1.42.08,2.69,1.11,3.08,2.48.41,1.29-.07,2.76-1.07,3.64-.3.15-.58.34-.86.53-.38.13-.76.22-1.15.27-.01-2.31,0-4.61,0-6.92h0Z"/><path class="cls-1" d="m147.67,83.09c.22.5.44.99.65,1.5-.58,1.25-1.14,2.5-1.68,3.76-.11.24-.22.47-.32.71-1.04,2.32-2.06,4.65-3.11,6.96-.31.69-.88,1.28-1.62,1.49-.45.21-1.15.18-1.28.78,1.82.08,3.64,0,5.46.04.41-.06.97.14,1.24-.29-.71-.51-2.02-.4-2.2-1.44.05-1.15.75-2.14,1.17-3.18,2.1.03,4.21,0,6.31.02.36.89.84,1.74,1.12,2.66.18.54-.12,1.17-.68,1.33-.49.26-1.29.19-1.43.86,3.32.01,6.65.05,9.97-.02-.14-.6-.85-.58-1.3-.79-.82-.22-1.38-.93-1.69-1.69-1.88-4.24-3.78-8.48-5.66-12.73-1.65,0-3.29,0-4.93,0h0Zm1.44,3.25c.84,1.89,1.68,3.77,2.52,5.65h-5.03c.84-1.89,1.67-3.77,2.52-5.65Z"/><path class="cls-1" d="m181.91,83.44c-1.68,0-3.36.39-4.81,1.24-1.94,1.1-3.44,3.07-3.72,5.31-.19,1.25.09,2.5.53,3.66.06.08.17.24.23.32,1.32,2.6,4.2,4.14,7.05,4.32,2.48.16,5.22-.43,6.93-2.34.6-.73,1.24-1.57,1.2-2.56-.6.59-.97,1.39-1.65,1.9-2.05,1.72-5.35,1.49-7.23-.37-2.53-2.42-2.18-7.12.66-9.15,1.79-1.27,4.45-.99,5.98.56.72.65,1.1,1.56,1.67,2.33.22-1.44.13-2.92-.16-4.35-.58.05-1.15.21-1.73.22-.68-.13-1.3-.45-1.96-.65-.96-.29-1.97-.44-2.98-.44Z"/><path class="cls-1" d="m202.56,83.45c0,1.5,0,2.99,0,4.49.29.03.59,0,.66-.35.32-.69.59-1.47,1.27-1.9,1.16-.85,2.68-.51,4.02-.57,0,3.35,0,6.69,0,10.04.04,1.14-.88,2.1-1.93,2.38-.43.2-1.11.19-1.23.76,3.77.04,7.55.12,11.31-.04-.51-.8-1.7-.6-2.34-1.28-1.43-1.17-.65-3.19-.89-4.77,0-.11,0-.33-.01-.44.1-2.21.01-4.43.04-6.65,1.45.04,3.15-.3,4.3.83.74.54.64,1.71,1.48,2.13.29-1.52.06-3.09.13-4.63-5.6,0-11.19,0-16.79,0Z"/></g></svg>